<svg xmlns="http://www.w3.org/2000/svg" version="1.1" xmlns:xlink="http://www.w3.org/1999/xlink" xmlns:svgjs="http://svgjs.com/svgjs" width="512" height="512" x="0" y="0" viewBox="0 0 512 512" style="enable-background:new 0 0 512 512" xml:space="preserve"><g><g id="XMLID_1947_"><g id="XMLID_739_"><path id="XMLID_836_" d="m436 0h-360c-30.879 0-56 25.121-56 56v446c0 4.045 2.437 7.691 6.173 9.239 3.737 1.545 8.039.692 10.898-2.168l28.929-28.928 28.929 28.929c3.906 3.904 10.236 3.904 14.143 0l28.928-28.929 28.929 28.929c3.906 3.904 10.236 3.904 14.143 0l28.928-28.929 28.929 28.929c3.906 3.904 10.236 3.904 14.143 0l28.928-28.929 28.929 28.929c3.906 3.904 10.236 3.904 14.143 0l28.928-28.929 28.929 28.929c1.913 1.913 4.471 2.93 7.073 2.929 1.288 0 2.588-.249 3.825-.761 3.736-1.548 6.173-5.194 6.173-9.239v-168.001h82c5.522 0 10-4.478 10-10v-96c0-5.522-4.478-10-10-10s-10 4.478-10 10v86h-72v-258c0-19.851 16.149-36 36-36s36 16.149 36 36v82c0 5.522 4.478 10 10 10s10-4.478 10-10v-82c0-30.879-25.121-56-56-56zm-56 56v421.857l-18.929-18.929c-3.906-3.904-10.236-3.904-14.143 0l-28.928 28.929-28.929-28.929c-3.906-3.904-10.236-3.904-14.143 0l-28.928 28.929-28.929-28.929c-3.906-3.904-10.236-3.904-14.143 0l-28.928 28.929-28.929-28.929c-3.906-3.904-10.236-3.904-14.143 0l-28.928 28.929-28.929-28.929c-3.906-3.904-10.236-3.904-14.143 0l-18.928 18.929v-421.857c0-19.851 16.149-36 36-36h317.149c-8.197 9.742-13.149 22.301-13.149 36z"  data-original="#000000"></path><path id="XMLID_859_" d="m226.35 165.781c.72.124 1.303.225 10.981.225 4.699 0 11.542-.024 21.581-.08 5.523-.031 9.975-4.533 9.944-10.056-.031-5.504-4.502-9.944-9.999-9.944-.019 0-.038 0-.057 0-7.19.04-14.916.069-20.759.074v-78c0-5.522-4.478-10-10-10s-10 4.478-10 10v87.926c.001 4.87 3.509 9.031 8.309 9.855z"  data-original="#000000"></path><path id="XMLID_860_" d="m301.164 165.781c.72.124 1.303.225 10.981.225 4.699 0 11.542-.024 21.581-.08 5.523-.031 9.975-4.533 9.944-10.056-.031-5.504-4.502-9.944-9.999-9.944-.019 0-.038 0-.057 0-7.19.04-14.916.069-20.759.074v-78c0-5.522-4.478-10-10-10s-10 4.478-10 10v87.926c.001 4.87 3.509 9.031 8.309 9.855z"  data-original="#000000"></path><path id="XMLID_861_" d="m184.042 166c5.522 0 10-4.478 10-10v-88c0-5.522-4.478-10-10-10s-10 4.478-10 10v88c0 5.522 4.478 10 10 10z"  data-original="#000000"></path><path id="XMLID_869_" d="m86.329 166h29.838c18.679 0 33.875-15.196 33.875-33.875 0-10.931-5.21-20.664-13.272-26.862 3.381-4.869 5.37-10.774 5.37-17.138 0-16.611-13.515-30.125-30.126-30.125h-25.685c-5.522 0-10 4.478-10 10v88c0 5.522 4.478 10 10 10zm29.838-20h-19.838v-27.749h19.838c7.65 0 13.875 6.225 13.875 13.875s-6.225 13.874-13.875 13.874zm-19.838-68h15.685c5.583 0 10.126 4.543 10.126 10.126s-4.543 10.125-10.126 10.125h-15.685z"  data-original="#000000"></path><path id="XMLID_876_" d="m103.625 202h-19.625c-5.522 0-10 4.478-10 10s4.478 10 10 10h19.625c5.522 0 10-4.478 10-10s-4.478-10-10-10z"  data-original="#000000"></path><path id="XMLID_877_" d="m141.667 212c0 5.522 4.478 10 10 10h182.004c5.522 0 10-4.478 10-10s-4.478-10-10-10h-182.004c-5.522 0-10 4.478-10 10z"  data-original="#000000"></path><path id="XMLID_879_" d="m103.625 258h-19.625c-5.522 0-10 4.478-10 10s4.478 10 10 10h19.625c5.522 0 10-4.478 10-10s-4.478-10-10-10z"  data-original="#000000"></path><path id="XMLID_880_" d="m210 258h-58.333c-5.522 0-10 4.478-10 10s4.478 10 10 10h58.333c5.522 0 10-4.478 10-10s-4.478-10-10-10z"  data-original="#000000"></path><path id="XMLID_884_" d="m103.625 314h-19.625c-5.522 0-10 4.478-10 10s4.478 10 10 10h19.625c5.522 0 10-4.478 10-10s-4.478-10-10-10z"  data-original="#000000"></path><path id="XMLID_888_" d="m210 314h-58.333c-5.522 0-10 4.478-10 10s4.478 10 10 10h58.333c5.522 0 10-4.478 10-10s-4.478-10-10-10z"  data-original="#000000"></path><path id="XMLID_922_" d="m103.625 370h-19.625c-5.522 0-10 4.478-10 10s4.478 10 10 10h19.625c5.522 0 10-4.478 10-10s-4.478-10-10-10z"  data-original="#000000"></path><path id="XMLID_928_" d="m210 370h-58.333c-5.522 0-10 4.478-10 10s4.478 10 10 10h58.333c5.522 0 10-4.478 10-10s-4.478-10-10-10z"  data-original="#000000"></path><path id="XMLID_1012_" d="m315.158 328.818c-2.254-.797-4.553-1.625-6.853-2.483v-41.744c5.905 1.859 9.814 4.643 10.006 4.781 4.4 3.293 10.64 2.418 13.962-1.968 3.335-4.402 2.47-10.675-1.932-14.01-.555-.421-9.246-6.864-22.036-9.426v-8.968c0-5.522-4.478-10-10-10s-10 4.478-10 10v8.893c-1.476.297-2.97.664-4.482 1.119-13.504 4.058-23.597 15.6-26.339 30.122-2.508 13.277 1.759 26.094 11.134 33.446 4.971 3.899 11.163 7.461 19.688 11.23v53.908c-7.358-.526-11.969-2.292-19.89-7.474-4.621-3.025-10.818-1.728-13.843 2.894-3.023 4.622-1.729 10.819 2.894 13.843 12.027 7.868 20.219 10.183 30.839 10.761v9.258c0 5.522 4.478 10 10 10s10-4.478 10-10v-10.324c20.233-4.627 32.071-21.599 34.741-37.484 3.52-20.938-7.427-39.14-27.889-46.374zm-34.197-15.974c-3.422-2.685-4.923-8.179-3.824-13.999.998-5.283 4.453-11.622 11.169-14.237v32.957c-2.762-1.512-5.259-3.085-7.345-4.721zm42.363 59.032c-1.297 7.712-6.395 15.874-15.019 19.742v-44.009c.064.022.123.044.187.067 16.554 5.85 15.538 20.002 14.832 24.2z"  data-original="#000000"></path><path id="XMLID_1014_" d="m482 173c-2.63 0-5.21 1.069-7.07 2.93s-2.93 4.44-2.93 7.07 1.069 5.21 2.93 7.069c1.86 1.86 4.44 2.931 7.07 2.931s5.21-1.07 7.069-2.931c1.861-1.859 2.931-4.439 2.931-7.069s-1.07-5.21-2.931-7.07c-1.859-1.861-4.439-2.93-7.069-2.93z" data-original="#000000"></path></g></g></g></svg>