<svg width="24" height="24" viewBox="0 0 24 24" xmlns="http://www.w3.org/2000/svg">
<path fill-rule="evenodd" clip-rule="evenodd" d="M12.0001 2.75C9.95537 2.75 8.31006 4.40312 8.31006 6.44C8.31006 8.42302 9.85913 10.032 11.815 10.1189C11.9336 10.1106 12.0589 10.1102 12.1771 10.1188C14.131 10.031 15.681 8.42308 15.6901 6.43847C15.6893 4.40339 14.0354 2.75 12.0001 2.75ZM6.81006 6.44C6.81006 3.57688 9.12475 1.25 12.0001 1.25C14.8643 1.25 17.1901 3.57579 17.1901 6.44L17.1901 6.44313C17.1784 9.24352 14.9711 11.5259 12.1853 11.6196C12.152 11.6207 12.1186 11.6196 12.0855 11.6163C12.0372 11.6115 11.9652 11.6108 11.898 11.6169C11.8671 11.6197 11.836 11.6206 11.8049 11.6196C9.01966 11.526 6.81006 9.24338 6.81006 6.44Z"/>
<path fill-rule="evenodd" clip-rule="evenodd" d="M12.1722 12.4375C14.1004 12.4375 16.0667 12.9214 17.5863 13.9363C18.9522 14.8454 19.7348 16.1198 19.7348 17.4913C19.7348 18.8626 18.9523 20.1393 17.587 21.0532L17.5868 21.0533C16.0626 22.0732 14.0938 22.56 12.1647 22.56C10.236 22.56 8.26764 22.0734 6.74355 21.0539C5.37744 20.1448 4.59473 18.8703 4.59473 17.4987C4.59473 16.1274 5.37717 14.8507 6.74251 13.9368L6.74527 13.9349L6.74527 13.9349C8.2737 12.9215 10.2438 12.4375 12.1722 12.4375ZM7.57556 15.1842C6.52191 15.89 6.09473 16.7429 6.09473 17.4987C6.09473 18.2544 6.52173 19.1047 7.57516 19.8056L7.5768 19.8067C8.80258 20.6268 10.4638 21.06 12.1647 21.06C13.8656 21.06 15.5268 20.6269 16.7525 19.8068C17.8072 19.1007 18.2348 18.2474 18.2348 17.4913C18.2348 16.7355 17.8078 15.8853 16.7543 15.1844L16.7532 15.1837C15.5328 14.3686 13.8741 13.9375 12.1722 13.9375C10.4713 13.9375 8.80699 14.3682 7.57556 15.1842Z"/>
</svg>
