<svg width="24" height="24" viewBox="0 0 24 24"  xmlns="http://www.w3.org/2000/svg">
<path d="M19.1484 4.45334H17.9766V1.64018C17.9766 1.11532 17.7226 0.618351 17.2973 0.310805C16.872 0.00325768 16.3205 -0.0822892 15.822 0.0821483L4.33763 3.86993C3.6637 4.09226 3.21094 4.71841 3.21094 5.42801V18.5313V22.3594C3.21094 23.264 3.94692 24 4.85156 24H19.1484C20.0531 24 20.7891 23.264 20.7891 22.3594V6.09396C20.7891 5.18937 20.0531 4.45334 19.1484 4.45334ZM19.3828 22.3594C19.3828 22.4886 19.2777 22.5937 19.1484 22.5937H4.85156C4.72233 22.5937 4.61719 22.4886 4.61719 22.3594V17.8282V6.09396C4.61719 5.96473 4.72233 5.85959 4.85156 5.85959H19.1484C19.2777 5.85959 19.3828 5.96473 19.3828 6.09396V22.3594ZM16.2625 1.41762C16.3615 1.38499 16.437 1.42409 16.4733 1.45029C16.5096 1.47649 16.5704 1.53598 16.5704 1.64018V4.45338H7.05834L16.2625 1.41762Z" />
<path d="M7.3125 13.9913H8.16478H16.6875C17.0758 13.9913 17.3906 13.6765 17.3906 13.2882C17.3906 12.8999 17.0758 12.585 16.6875 12.585H16.4838C16.1807 10.6445 14.6437 9.10743 12.7031 8.80434V8.45203C12.7031 8.06371 12.3883 7.7489 12 7.7489C11.6117 7.7489 11.2969 8.06371 11.2969 8.45203V8.80434C9.35634 9.10743 7.81927 10.6445 7.51617 12.585H7.3125C6.92419 12.585 6.60938 12.8999 6.60938 13.2882C6.60938 13.6765 6.92419 13.9913 7.3125 13.9913ZM12 10.1561C13.4854 10.1561 14.7325 11.1955 15.0525 12.585H8.94745C9.26747 11.1955 10.5147 10.1561 12 10.1561Z" />
<path d="M7.58517 15.8909C7.19686 15.8909 6.88205 16.2057 6.88205 16.594C6.88205 16.9823 7.19686 17.2971 7.58517 17.2971H10.9602C11.3485 17.2971 11.6633 16.9823 11.6633 16.594C11.6633 16.2057 11.3485 15.8909 10.9602 15.8909H7.58517Z" />
<path d="M16.5117 18.7034H7.48828C7.09997 18.7034 6.78516 19.0182 6.78516 19.4065C6.78516 19.7948 7.09997 20.1096 7.48828 20.1096H16.5117C16.9 20.1096 17.2148 19.7948 17.2148 19.4065C17.2148 19.0182 16.9 18.7034 16.5117 18.7034Z"/>
</svg>
