<svg width="24" height="24" viewBox="0 0 24 24" xmlns="http://www.w3.org/2000/svg">
<path d="M21.4851 0H2.51493C1.97165 0 1.52966 0.441984 1.52966 0.985266V20.9565V23.0147C1.52966 23.558 1.9716 24 2.51493 24H6.35788C6.56718 24 6.73682 23.8304 6.73682 23.6211C6.73682 23.4117 6.56713 23.2421 6.35788 23.2421H2.51493C2.38954 23.2421 2.28754 23.1401 2.28754 23.0147V21.3354H20.3916V23.2421H20.1011H7.58737C7.37807 23.2421 7.20843 23.4117 7.20843 23.621C7.20843 23.8304 7.37812 24 7.58737 24H20.1011H20.7705H21.4851C22.0283 24 22.4703 23.558 22.4703 23.0147V20.3501V0.985266C22.4703 0.441984 22.0283 0 21.4851 0ZM3.74394 20.5776H2.28758V0.985266C2.28758 0.859922 2.38954 0.757875 2.51498 0.757875H3.74399V20.5776H3.74394ZM20.7704 20.5776H4.50182V0.757875H21.485C21.6104 0.757875 21.7124 0.859875 21.7124 0.985266V20.3502C21.7124 20.4755 21.6104 20.5776 21.485 20.5776H20.7704ZM21.7124 23.0147C21.7124 23.1401 21.6104 23.2421 21.485 23.2421H21.1494V21.3355H21.485C21.5159 21.3355 21.5465 21.3337 21.5766 21.3308C21.5813 21.3304 21.5861 21.3301 21.5907 21.3296C21.6193 21.3265 21.6475 21.3221 21.6753 21.3167C21.6808 21.3156 21.6862 21.3145 21.6917 21.3133C21.6986 21.3119 21.7055 21.3107 21.7124 21.309V23.0147H21.7124Z" />
<path d="M19.7558 22.2888C19.7558 22.0794 19.5862 21.9099 19.3768 21.9099H3.35999C3.15069 21.9099 2.98105 22.0795 2.98105 22.2888C2.98105 22.4981 3.15074 22.6677 3.35999 22.6677H19.3768C19.5861 22.6677 19.7558 22.498 19.7558 22.2888Z" />
<path d="M9.90762 12.9377V9.85986H9.2704L8.35142 11.6112L7.44106 9.85986H6.79953V12.9377H7.39775V10.9002L8.19101 12.4175H8.51614L9.30945 10.9002V12.9377H9.90762Z" />
<path d="M11.1475 11.6112H12.4436V11.1256H11.1475V10.3843H12.6473V9.85986H10.5492V12.9377H12.6863V12.4131H11.1475V11.6112Z" />
<path d="M13.7527 10.9653L15.3349 12.9377H15.8205V9.86418H15.2223V11.8799L13.6183 9.85986H13.1545V12.9377H13.7527V10.9653Z" />
<path d="M16.4187 9.85985V9.8599V11.4291C16.4187 11.6285 16.4425 11.8208 16.4902 12.0056C16.5379 12.1906 16.6152 12.3532 16.7221 12.4933C16.829 12.6335 16.9685 12.7463 17.1405 12.8314C17.3123 12.9168 17.5212 12.9593 17.7668 12.9593C18.0038 12.9593 18.2075 12.9189 18.378 12.8379C18.5485 12.757 18.688 12.6472 18.7964 12.5084C18.9047 12.3697 18.9842 12.2079 19.0348 12.023C19.0853 11.8381 19.1107 11.6401 19.1107 11.429V9.8598H18.5168V11.4291C18.5168 11.5563 18.5045 11.6799 18.48 11.7997C18.4554 11.9197 18.4134 12.0259 18.3542 12.1183C18.295 12.2109 18.2169 12.286 18.1201 12.3438C18.0233 12.4016 17.9041 12.4305 17.7625 12.4305C17.6238 12.4305 17.5067 12.4023 17.4114 12.346C17.316 12.2897 17.2387 12.2152 17.1795 12.1227C17.1202 12.0303 17.0782 11.9241 17.0538 11.8041C17.0292 11.6842 17.0169 11.5592 17.0169 11.4291V9.8599H16.4187V9.85985Z" />
<path d="M14.9588 8.70636H17.406C17.6154 8.70636 17.785 8.53677 17.785 8.32743C17.785 8.11808 17.6153 7.94849 17.406 7.94849H14.9588C14.6876 7.94849 14.4326 7.84283 14.2407 7.65097C14.1015 7.5119 14.0249 7.32688 14.0249 7.13015C14.0249 6.93337 14.1015 6.74835 14.2407 6.60922C14.3377 6.51229 14.4667 6.4588 14.6038 6.4588C14.741 6.4588 14.87 6.51224 14.9669 6.60927C15.0302 6.67255 15.065 6.7566 15.065 6.84613C15.065 6.93566 15.0302 7.0198 14.9669 7.08299C14.8189 7.23097 14.8189 7.47093 14.9669 7.61886C15.1149 7.76685 15.3548 7.7669 15.5028 7.61891C15.7092 7.41252 15.8229 7.13807 15.8229 6.84613C15.823 6.55419 15.7093 6.27974 15.5029 6.0733C15.2628 5.83316 14.9435 5.70093 14.6039 5.70093C14.2642 5.70093 13.945 5.83321 13.7049 6.0733C13.4226 6.35558 13.2671 6.73091 13.2671 7.1301C13.2671 7.52924 13.4226 7.90457 13.7048 8.1868C14.0398 8.52191 14.4851 8.70636 14.9588 8.70636Z" />
<path d="M8.31191 8.70639H10.7592C11.2328 8.70639 11.6782 8.52194 12.0131 8.18697C12.2954 7.90469 12.4508 7.52936 12.4508 7.13022C12.4508 6.73103 12.2954 6.35571 12.0131 6.07347C11.773 5.83333 11.4537 5.70105 11.1141 5.70105C10.7745 5.70105 10.4552 5.83328 10.215 6.07342C10.0086 6.27986 9.89497 6.55432 9.89497 6.84625C9.89502 7.13819 10.0087 7.41264 10.2151 7.61903C10.3631 7.76707 10.6031 7.76702 10.751 7.61899C10.899 7.471 10.8989 7.23105 10.751 7.08311C10.6877 7.01988 10.6528 6.93574 10.6528 6.84625C10.6528 6.75677 10.6877 6.67263 10.7509 6.60939C10.8479 6.51236 10.9768 6.45892 11.114 6.45892C11.2512 6.45892 11.3801 6.51236 11.4771 6.60939C11.6163 6.74847 11.693 6.93349 11.693 7.13027C11.693 7.327 11.6163 7.51197 11.4771 7.65114C11.2854 7.84296 11.0304 7.94861 10.7591 7.94861H8.31186C8.10256 7.94861 7.93292 8.11821 7.93292 8.32755C7.93288 8.53689 8.10266 8.70639 8.31191 8.70639Z" />
<path d="M17.406 14.1127H14.9588C14.4851 14.1127 14.0398 14.2972 13.7049 14.6322C13.4226 14.9144 13.2671 15.2898 13.2671 15.6889C13.2671 16.0881 13.4226 16.4634 13.7048 16.7457C13.945 16.9858 14.2642 17.1181 14.6039 17.1181C14.9435 17.1181 15.2628 16.9858 15.5029 16.7457C15.7093 16.5393 15.823 16.2648 15.8229 15.9729C15.8229 15.6809 15.7093 15.4065 15.5028 15.2001C15.3547 15.0521 15.1148 15.0521 14.9669 15.2001C14.8189 15.3481 14.8189 15.5881 14.9669 15.736C15.0302 15.7993 15.065 15.8834 15.065 15.9729C15.065 16.0624 15.0302 16.1465 14.9669 16.2097C14.87 16.3068 14.741 16.3602 14.6038 16.3602C14.4667 16.3602 14.3377 16.3068 14.2407 16.2097C14.1015 16.0707 14.0249 15.8856 14.0249 15.6889C14.0249 15.4921 14.1015 15.3072 14.2407 15.168C14.4325 14.9762 14.6875 14.8705 14.9587 14.8705H17.406C17.6153 14.8705 17.7849 14.7009 17.7849 14.4916C17.785 14.2822 17.6153 14.1127 17.406 14.1127Z" />
<path d="M10.7591 14.1127H8.31186C8.10256 14.1127 7.93292 14.2823 7.93292 14.4917C7.93292 14.701 8.10261 14.8706 8.31186 14.8706H10.7591C11.0304 14.8706 11.2853 14.9763 11.4771 15.1681C11.6163 15.3072 11.693 15.4922 11.693 15.6889C11.693 15.8857 11.6163 16.0707 11.4771 16.2099C11.3802 16.3068 11.2513 16.3603 11.1141 16.3603C10.9769 16.3603 10.848 16.3069 10.751 16.2098C10.6877 16.1466 10.6529 16.0625 10.6529 15.973C10.6529 15.8834 10.6878 15.7993 10.751 15.7361C10.899 15.5881 10.899 15.3482 10.751 15.2002C10.6031 15.0522 10.3632 15.0522 10.2152 15.2002C10.0087 15.4066 9.89502 15.681 9.89502 15.973C9.89502 16.2649 10.0087 16.5394 10.2151 16.7458C10.4552 16.9859 10.7745 17.1182 11.1141 17.1182C11.4538 17.1182 11.7731 16.9859 12.0131 16.7458C12.2954 16.4635 12.4509 16.0882 12.4509 15.689C12.4509 15.2899 12.2954 14.9145 12.0132 14.6323C11.6782 14.2973 11.2328 14.1127 10.7591 14.1127Z" />
<path d="M18.8969 7.94849H18.5685C18.3591 7.94849 18.1895 8.11808 18.1895 8.32742C18.1895 8.53677 18.3591 8.70636 18.5685 8.70636H18.8969C19.1062 8.70636 19.2758 8.53677 19.2758 8.32742C19.2758 8.11808 19.1062 7.94849 18.8969 7.94849Z" />
<path d="M18.8969 14.1127H18.5685C18.3591 14.1127 18.1895 14.2823 18.1895 14.4917C18.1895 14.701 18.3591 14.8706 18.5685 14.8706H18.8969C19.1062 14.8706 19.2758 14.701 19.2758 14.4917C19.2758 14.2824 19.1062 14.1127 18.8969 14.1127Z" />
<path d="M6.85007 8.70636H7.17847C7.38777 8.70636 7.55741 8.53677 7.55741 8.32742C7.55741 8.11808 7.38772 7.94849 7.17847 7.94849H6.85007C6.64077 7.94849 6.47113 8.11808 6.47113 8.32742C6.47108 8.53677 6.64077 8.70636 6.85007 8.70636Z" />
<path d="M7.17847 14.1127H6.85007C6.64077 14.1127 6.47113 14.2823 6.47113 14.4917C6.47113 14.701 6.64082 14.8706 6.85007 14.8706H7.17847C7.38777 14.8706 7.55741 14.701 7.55741 14.4917C7.55741 14.2824 7.38772 14.1127 7.17847 14.1127Z" />
</svg>
