<svg width="24" height="24" viewBox="0 0 24 24" xmlns="http://www.w3.org/2000/svg">
<g clip-path="url(#clip0_85_1759)">
<path d="M18.5965 14.1596L15.6921 12.8833C17.7409 11.3943 19.2 8.69273 19.2 6.32812C19.2 2.8388 15.9701 0 12 0C8.02992 0 4.8 2.8388 4.8 6.32812C4.8 8.69245 6.2592 11.3944 8.30789 12.8833L5.40352 14.1596C2.40635 14.2509 0 16.422 0 19.0781V23.2969C0 23.6852 0.358187 24 0.8 24H23.2C23.6418 24 24 23.6852 24 23.2969V19.0781C24 16.422 21.5937 14.2509 18.5965 14.1596ZM17.2316 15.1321L14.9261 18.1717L13.1683 17.3992L15.4739 14.3596L17.2316 15.1321ZM12 1.40625C14.8162 1.40625 17.1532 3.243 17.5426 5.625H16.8C15.4766 5.625 14.4 4.67873 14.4 3.51562C14.4 3.12731 14.0418 2.8125 13.6 2.8125C13.1582 2.8125 12.8 3.12731 12.8 3.51562C12.8 4.67873 11.7234 5.625 10.4 5.625H6.45739C6.84677 3.243 9.18379 1.40625 12 1.40625ZM8.52608 14.3596L10.8316 17.3992L9.07387 18.1716L6.76832 15.132L8.52608 14.3596ZM11.2 22.5938H1.6V19.0781C1.6 17.2624 3.17424 15.7639 5.18613 15.5813L8.13435 19.4681C8.35829 19.7633 8.79717 19.8655 9.15776 19.707L11.2 18.8096V22.5938ZM9.97051 13.7287C10.3783 13.2779 10.3414 12.6317 9.87787 12.2205C9.87787 12.2205 9.87781 12.2205 9.87781 12.2204C9.79387 12.146 9.63829 12.0113 9.53941 11.9464C7.95285 10.9038 6.71296 8.88759 6.45173 7.03125H10.4C11.707 7.03125 12.8696 6.47747 13.6 5.6228C14.3304 6.47747 15.493 7.02656 16.8 7.02656H17.5483C17.287 8.8837 16.0465 10.9051 14.4591 11.9474C14.3606 12.012 14.2057 12.1461 14.122 12.2202C13.6564 12.633 13.6229 13.28 14.0293 13.7289L12 16.4043L9.97051 13.7287ZM22.4 22.5938H12.8V18.8096L14.8422 19.707C15.2032 19.8656 15.6419 19.7632 15.8657 19.4682L18.8139 15.5813C20.8258 15.7639 22.4 17.2624 22.4 19.0781V22.5938Z" />
<path d="M22.2422 19.7812H18.916C18.4567 19.7812 18.0844 20.0961 18.0844 20.4844C18.0844 20.8727 18.4567 21.1875 18.916 21.1875H22.2422C22.7015 21.1875 23.0738 20.8727 23.0738 20.4844C23.0738 20.0961 22.7015 19.7812 22.2422 19.7812Z" />
</g>
<defs>
<clipPath id="clip0_85_1759">
<rect width="24" height="24" />
</clipPath>
</defs>
</svg>
