<svg width="24" height="24" viewBox="0 0 24 24"  xmlns="http://www.w3.org/2000/svg">
<path d="M12 1.19995C6.1828 1.19995 0 2.98431 0 6.29085V9.34539C0 12.349 5.1036 14.0967 10.4 14.3915V16.5699C8.4 16.8137 6.4 17.5672 6.4 19.0181V21.0545C6.4 22.7258 9.2172 23.5999 12 23.5999C14.7828 23.5999 17.6 22.7258 17.6 21.0545V19.0181C17.6 17.5672 15.598 16.8137 13.6 16.5699V14.3915C18.8964 14.0967 24 12.349 24 9.34539V6.29085C24 2.98431 17.8172 1.19995 12 1.19995V1.19995ZM12 2.21813C18.6 2.21813 23.2 4.36445 23.2 6.29085C23.2 8.21725 18.6 10.3636 12 10.3636C5.4 10.3636 0.8 8.21725 0.8 6.29085C0.8 4.36445 5.4 2.21813 12 2.21813ZM12 22.5817C9.0224 22.5817 7.2 21.5931 7.2 21.0545V20.414C8.2484 21.1955 10.1704 21.5635 12 21.5635C13.8296 21.5635 15.7516 21.1955 16.8 20.414V21.0545C16.8 21.5931 14.9776 22.5817 12 22.5817ZM16.8 19.0181C16.8 19.5567 14.9776 20.5454 12 20.5454C9.0224 20.5454 7.2 19.5567 7.2 19.0181C7.2 18.6332 8.2692 17.867 10.4 17.5926V18.509C10.4 18.644 10.4422 18.7735 10.5172 18.8689C10.9273 19.3213 11.4578 19.5569 12 19.5272C12.5422 19.5569 13.0727 19.3213 13.4828 18.8689C13.5578 18.7735 13.6 18.644 13.6 18.509V17.5926C15.7308 17.867 16.8 18.6332 16.8 19.0181ZM12.8 18.2545C12.3 18.5939 11.7 18.5939 11.2 18.2545V14.4241C11.4668 14.4312 11.734 14.4363 12 14.4363C12.266 14.4363 12.5332 14.4312 12.8 14.4241V18.2545ZM13.204 13.3937H13.2H13.1948C12.8044 13.41 12.4061 13.4181 12 13.4181C11.5939 13.4181 11.1956 13.4101 10.8052 13.3942H10.8H10.796C4.8468 13.1529 0.8 11.1521 0.8 9.34539V8.21674C2.654 10.2847 7.44 11.3817 12 11.3817C16.56 11.3817 21.346 10.2847 23.2 8.21674V9.34539C23.2 11.1521 19.1532 13.1529 13.204 13.3937Z" />
</svg>
